<svg id="visual" viewBox="0 0 960 540" width="960" height="540" xmlns="http://www.w3.org/2000/svg" xmlns:xlink="http://www.w3.org/1999/xlink" version="1.1"><rect x="0" y="0" width="960" height="540" fill="#ffffff"></rect><defs><linearGradient id="grad1_0" x1="43.8%" y1="0%" x2="100%" y2="100%"><stop offset="14.444444444444446%" stop-color="#1ad5ff" stop-opacity="1"></stop><stop offset="85.55555555555554%" stop-color="#1ad5ff" stop-opacity="1"></stop></linearGradient></defs><defs><linearGradient id="grad1_1" x1="43.8%" y1="0%" x2="100%" y2="100%"><stop offset="14.444444444444446%" stop-color="#1ad5ff" stop-opacity="1"></stop><stop offset="85.55555555555554%" stop-color="#aeeaff" stop-opacity="1"></stop></linearGradient></defs><defs><linearGradient id="grad1_2" x1="43.8%" y1="0%" x2="100%" y2="100%"><stop offset="14.444444444444446%" stop-color="#ffffff" stop-opacity="1"></stop><stop offset="85.55555555555554%" stop-color="#aeeaff" stop-opacity="1"></stop></linearGradient></defs><defs><linearGradient id="grad2_0" x1="0%" y1="0%" x2="56.3%" y2="100%"><stop offset="14.444444444444446%" stop-color="#1ad5ff" stop-opacity="1"></stop><stop offset="85.55555555555554%" stop-color="#1ad5ff" stop-opacity="1"></stop></linearGradient></defs><defs><linearGradient id="grad2_1" x1="0%" y1="0%" x2="56.3%" y2="100%"><stop offset="14.444444444444446%" stop-color="#aeeaff" stop-opacity="1"></stop><stop offset="85.55555555555554%" stop-color="#1ad5ff" stop-opacity="1"></stop></linearGradient></defs><defs><linearGradient id="grad2_2" x1="0%" y1="0%" x2="56.3%" y2="100%"><stop offset="14.444444444444446%" stop-color="#aeeaff" stop-opacity="1"></stop><stop offset="85.55555555555554%" stop-color="#ffffff" stop-opacity="1"></stop></linearGradient></defs><g transform="translate(960, 0)"><path d="M0 486C-36.3 448.3 -72.5 410.6 -103.8 387.3C-135.1 364 -161.3 355.1 -205 355.1C-248.7 355 -309.7 363.9 -342.9 342.9C-376.2 322 -381.8 271.4 -401 231.5C-420.2 191.6 -453 162.6 -469.4 125.8C-485.9 89 -485.9 44.5 -486 0L0 0Z" fill="#d9f5ff"></path><path d="M0 324C-24.2 298.9 -48.3 273.8 -69.2 258.2C-90 242.7 -107.6 236.7 -136.7 236.7C-165.8 236.7 -206.4 242.6 -228.6 228.6C-250.8 214.7 -254.5 180.9 -267.3 154.3C-280.1 127.8 -302 108.4 -313 83.9C-323.9 59.3 -324 29.7 -324 0L0 0Z" fill="#7be0ff"></path><path d="M0 162C-12.1 149.4 -24.2 136.9 -34.6 129.1C-45 121.3 -53.8 118.4 -68.3 118.4C-82.9 118.3 -103.2 121.3 -114.3 114.3C-125.4 107.3 -127.3 90.5 -133.7 77.2C-140.1 63.9 -151 54.2 -156.5 41.9C-162 29.7 -162 14.8 -162 0L0 0Z" fill="#1ad5ff"></path></g><g transform="translate(0, 540)"><path d="M0 -486C36.7 -451.3 73.5 -416.6 105.3 -393.1C137.2 -369.6 164.2 -357.3 204 -353.3C243.8 -349.4 296.5 -353.8 337.3 -337.3C378.1 -320.8 407.1 -283.4 420.9 -243C434.6 -202.6 433.1 -159.3 441.4 -118.3C449.7 -77.3 467.9 -38.6 486 0L0 0Z" fill="#d9f5ff"></path><path d="M0 -324C24.5 -300.9 49 -277.8 70.2 -262.1C91.5 -246.4 109.5 -238.2 136 -235.6C162.5 -232.9 197.6 -235.9 224.9 -224.9C252.1 -213.9 271.4 -188.9 280.6 -162C289.8 -135.1 288.7 -106.2 294.3 -78.9C299.8 -51.5 311.9 -25.8 324 0L0 0Z" fill="#7be0ff"></path><path d="M0 -162C12.2 -150.4 24.5 -138.9 35.1 -131C45.7 -123.2 54.7 -119.1 68 -117.8C81.3 -116.5 98.8 -117.9 112.4 -112.4C126 -106.9 135.7 -94.5 140.3 -81C144.9 -67.5 144.4 -53.1 147.1 -39.4C149.9 -25.8 156 -12.9 162 0L0 0Z" fill="#1ad5ff"></path></g></svg>