<svg id="visual" viewBox="0 0 900 600" width="900" height="600" xmlns="http://www.w3.org/2000/svg" xmlns:xlink="http://www.w3.org/1999/xlink" version="1.1"><g>
<g transform="translate(717 331)"><path d="M58.3 -68.7C72 -44.6 77 -22.3 77 0C77 22.3 71.9 44.6 58.2 61C44.6 77.4 22.3 88 1.5 86.5C-19.3 85 -38.5 71.4 -61.1 55C-83.7 38.5 -109.7 19.3 -112.5 -2.8C-115.4 -25 -95.1 -49.9 -72.5 -74C-49.9 -98.1 -25 -121.4 -1.3 -120.1C22.3 -118.8 44.6 -92.9 58.3 -68.7Z" stroke="#FF0063" fill="none" stroke-width="15"></path>
</g>
<g transform="translate(185 185)"><path d="M56.3 -63.1C75.6 -37 95.8 -18.5 94.1 -1.7C92.4 15 68.7 30 49.4 56.9C30 83.8 15 122.5 -7.8 130.3C-30.7 138.2 -61.3 115.1 -82.6 88.2C-103.9 61.3 -115.7 30.7 -117.1 -1.4C-118.4 -33.4 -109.3 -66.8 -88 -92.9C-66.8 -119.1 -33.4 -138.1 -7.5 -130.7C18.5 -123.2 37 -89.3 56.3 -63.1Z" stroke="#FF0063" fill="none" stroke-width="8"></path>
</g>
</g>
</svg>
