<svg id="visual" viewBox="0 0 900 600" width="900" height="600" xmlns="http://www.w3.org/2000/svg" xmlns:xlink="http://www.w3.org/1999/xlink" version="1.1"><rect x="0" y="0" width="900" height="600" fill="#ffffff00"></rect><path d="M0 330L100 319L200 357L300 392L400 373L500 332L600 350L700 399L800 343L900 380L900 601L800 601L700 601L600 601L500 601L400 601L300 601L200 601L100 601L0 601Z" fill="#1ad5ff"></path><path d="M0 439L100 421L200 451L300 424L400 459L500 397L600 418L700 439L800 387L900 436L900 601L800 601L700 601L600 601L500 601L400 601L300 601L200 601L100 601L0 601Z" fill="#69aeff"></path><path d="M0 444L100 500L200 486L300 483L400 473L500 484L600 490L700 452L800 446L900 437L900 601L800 601L700 601L600 601L500 601L400 601L300 601L200 601L100 601L0 601Z" fill="#d86ddc"></path><path d="M0 526L100 521L200 499L300 547L400 524L500 509L600 535L700 533L800 524L900 523L900 601L800 601L700 601L600 601L500 601L400 601L300 601L200 601L100 601L0 601Z" fill="#ff0063"></path></svg>
